<svg width="52.00000000000001" height="52.00000000000001" xmlns="http://www.w3.org/2000/svg">

 <g>
  <title>background</title>
  <rect fill="none" id="canvas_background" height="402" width="582" y="-1" x="-1"/>
 </g>
 <g>
  <title>Layer 1</title>
  <path id="svg_3" fill="#ffffff" d="m13.79492,4.13339c8.40554,-0.00066 16.81109,-0.00133 25.21663,-0.002c-0.41667,-0.41666 -0.83333,-0.83333 -1.25,-1.25c0.94481,15.2806 0.45227,30.67239 0.42913,45.97504c0.41667,-0.41666 0.83334,-0.83333 1.25,-1.25c-8.94766,0.02103 -17.89532,0.04206 -26.84298,0.06309c0.41667,0.41667 0.83333,0.83333 1.25,1.25c0.007,-7.58016 0.014,-15.16033 0.02099,-22.74049c0.00688,-7.44568 -0.80976,-15.4347 0.27684,-22.80364c0.23206,-1.5738 -2.17648,-2.25301 -2.4107,-0.6646c-1.03115,6.99289 -0.3578,14.43645 -0.36431,21.4908c-0.00761,8.23931 -0.01522,16.47862 -0.02282,24.71793c-0.00062,0.67456 0.57319,1.25159 1.25,1.25c8.94766,-0.02103 17.89532,-0.04206 26.84298,-0.06309c0.67648,-0.00159 1.24898,-0.57143 1.25,-1.25c0.02314,-15.30273 0.51568,-30.69439 -0.42913,-45.97504c-0.0417,-0.67444 -0.53891,-1.25005 -1.25,-1.25c-8.40554,0.00067 -16.81109,0.00134 -25.21663,0.002c-1.60863,0.00013 -1.6113,2.50013 0,2.5l0,0z"/>
  <path id="svg_5" fill="#ffffff" d="m18.512492,8.216091c0.44444,0 0.88889,0 1.33333,0c1.60863,0 1.6113,-2.5 0,-2.5c-0.44444,0 -0.88889,0 -1.33333,0c-1.60863,0 -1.6113,2.5 0,2.5l0,0z"/>
  <path id="svg_7" fill="#ffffff" d="m31.71157,8.39896c0.88889,0 1.77778,0 2.66666,0c1.60864,0 1.6113,-2.5 0,-2.5c-0.88888,0 -1.77777,0 -2.66666,0c-1.60863,0 -1.6113,2.5 0,2.5l0,0z"/>
  <path id="svg_9" fill="#ffffff" d="m30.13096,18.56362c-0.32326,2.12665 -1.38171,3.15402 -3.61444,3.09898c-2.17698,-0.05366 -4.26384,-2.0707 -3.88547,-4.35074c0.34935,-2.10519 2.27323,-3.29864 4.30361,-3.12543c1.38266,0.11795 1.96684,0.36524 2.55775,1.55717c0.53394,1.07702 0.72398,2.2668 0.55522,3.45592c-0.22331,1.57359 2.1852,2.25354 2.4107,0.66459c0.42493,-2.99423 -0.55464,-7.46198 -4.0726,-8.05679c-1.67342,-0.28293 -3.94759,-0.44337 -5.35686,0.66393c-1.24789,0.9805 -2.42553,2.47266 -2.80796,4.02955c-0.79809,3.24911 1.72738,6.94315 4.98577,7.52639c3.69363,0.66113 6.76081,-1.02171 7.33498,-4.79897c0.23925,-1.5739 -2.16932,-2.25251 -2.4107,-0.6646l0,0z"/>
  <path id="svg_11" fill="#ffffff" d="m26.68068,35.39424c0.11959,0.41245 0.45045,1.45115 -0.2703,1.55422c0.05604,-0.00802 -0.64883,-0.37425 -0.70112,-0.40552c-0.25712,-0.15376 -0.30512,-0.08443 -0.40951,-0.38796c-0.10827,-0.31479 0.05914,-0.63484 0.03263,-0.94159c0.15678,-0.48033 -0.03077,-0.42746 -0.56267,0.15863c0.17011,-0.01221 0.34023,-0.02443 0.51034,-0.03665c0.36698,-0.02635 1.18084,-0.23142 1.46965,0.0596c1.13492,1.14362 2.90281,-0.62403 1.76776,-1.76777c-1.03421,-1.04213 -2.97991,-1.04094 -4.32787,-0.67039c-1.67764,0.46118 -1.69272,3.23676 -1.05039,4.4978c0.41557,0.81586 1.01421,1.03297 1.75471,1.4577c0.8036,0.46092 1.49395,0.70685 2.41203,0.35566c1.94614,-0.74445 2.31632,-2.70738 1.78544,-4.53833c-0.44716,-1.54221 -2.86035,-0.8862 -2.4107,0.6646l0,0z"/>
  <path id="svg_13" fill="#ffffff" d="m32.60023,37.02959c0.16332,2.93831 -3.49089,5.51434 -6.16497,5.66772c-3.81267,0.21868 -7.2904,-2.90795 -7.00943,-6.89689c0.22873,-3.24735 2.72416,-6.23095 5.9913,-6.25054c4.4774,-0.02684 8.4103,2.55092 7.52753,7.5419c-0.27827,1.57331 2.13053,2.24864 2.4107,0.66459c0.87995,-4.97506 -2.03972,-10.01519 -7.29954,-10.61178c-2.3346,-0.2648 -5.0551,-0.52764 -6.943,1.04866c-2.03194,1.69658 -3.84617,4.09083 -4.13977,6.77168c-0.55707,5.0868 2.98701,9.55628 7.96092,10.11389c2.98012,0.33409 4.4904,-0.09308 6.70321,-1.98291c2.2256,-1.90076 3.63538,-2.96583 3.46305,-6.06632c-0.08893,-1.59983 -2.5895,-1.61019 -2.5,0l0,0z"/>
 </g>
</svg>